<svg xmlns="http://www.w3.org/2000/svg" width="22.549" height="10" viewBox="0 0 22.549 10">
  <path id="Path_3320" data-name="Path 3320" d="M-962,410.148c.115-.267.336-.309.6-.309q7.893,0,15.787,0h.316V409.6c0-.844,0-1.688,0-2.532,0-.216.02-.416.248-.517a.492.492,0,0,1,.571.159q2.382,2.175,4.767,4.346c.352.321.35.537,0,.856q-2.388,2.2-4.78,4.4a.752.752,0,0,1-.436.2c-.242.008-.372-.2-.373-.5,0-.851,0-1.7,0-2.554,0-.079,0-.159,0-.265h-.3q-7.9,0-15.809,0c-.262,0-.482-.042-.6-.309Z" transform="translate(962 -406.506)" fill="#fff"/>
</svg>
