<svg xmlns="http://www.w3.org/2000/svg" width="40" height="40" viewBox="0 0 40 40">
  <g id="Category" transform="translate(-122 -6034)">
    <rect id="Rectangle_2242" data-name="Rectangle 2242" width="40" height="40" transform="translate(122 6034)" fill="none"/>
    <g id="Group_1225" data-name="Group 1225" transform="translate(131.113 6044.688)">
      <path id="Path_3396" data-name="Path 3396" d="M-538.356,33.707l-2.832-1.168q-3.3-1.361-6.608-2.717a.353.353,0,0,1-.268-.385q.013-4.866.006-9.732v-.3c.159.063.286.112.411.163q4.544,1.88,9.09,3.757c.144.059.216.119.216.294q-.009,4.94,0,9.88C-538.347,33.555-538.352,33.611-538.356,33.707Zm-6.549-5.373c.065-.078.2-.171.2-.259a.4.4,0,0,0-.2-.306c-.44-.169-.9-.3-1.343-.45-.2-.066-.375-.092-.475.137-.072.165.041.314.291.4.426.139.853.274,1.28.41C-545.091,28.281-545.028,28.3-544.905,28.333Zm.143.931c-.044-.043-.111-.161-.207-.195-.483-.171-.973-.323-1.462-.476a.259.259,0,0,0-.358.161.268.268,0,0,0,.188.368c.494.165.99.325,1.488.476C-544.925,29.656-544.762,29.523-544.762,29.264Z" transform="translate(548.064 -15.081)" fill="#0008c1"/>
      <path id="Path_3397" data-name="Path 3397" d="M-391.149,33.855v-.281q0-4.88-.005-9.761a.322.322,0,0,1,.237-.357c1-.4,1.992-.817,3.021-1.243.007.115.017.207.018.3.023,1.365.047,2.73.065,4.1,0,.219.033.416.261.5a.49.49,0,0,0,.566-.179c.252-.267.516-.523.779-.788.264.119.515.234.768.347.445.2.725.019.717-.466-.028-1.61-.055-3.22-.094-4.83a.313.313,0,0,1,.239-.354c.954-.383,1.9-.782,2.852-1.175.081-.034.165-.063.273-.1.006.1.015.174.015.251q0,4.905,0,9.81a.277.277,0,0,1-.2.31q-4.664,1.917-9.321,3.848C-391,33.8-391.057,33.82-391.149,33.855Z" transform="translate(401.434 -15.229)" fill="#0008c1"/>
      <path id="Path_3398" data-name="Path 3398" d="M-540.7-8.163l1.553-.642c.649-.268,1.3-.54,1.947-.8a.447.447,0,0,1,.316-.009q4.343,2.011,8.68,4.038c.029.014.057.03.114.061a1.581,1.581,0,0,1-.17.1c-.912.378-1.824.757-2.74,1.125a.5.5,0,0,1-.344,0q-4.573-1.88-9.141-3.774C-540.539-8.085-540.594-8.114-540.7-8.163Z" transform="translate(541.18 12.058)" fill="#0008c1"/>
      <path id="Path_3399" data-name="Path 3399" d="M-430.975-45.652c.752-.311,1.482-.617,2.217-.909a.44.44,0,0,1,.3.022q4.426,1.821,8.848,3.651l.507.211-1.2.5c-.6.25-1.2.5-1.811.746a.437.437,0,0,1-.314.011q-4.233-2.073-8.459-4.161A.719.719,0,0,1-430.975-45.652Z" transform="translate(438.646 46.579)" fill="#0008c1"/>
      <path id="Path_3400" data-name="Path 3400" d="M-462.636-22.093c-.616.255-1.185.494-1.758.725a.266.266,0,0,1-.182-.029q-4.37-2.031-8.738-4.068a.614.614,0,0,1-.078-.061,13.7,13.7,0,0,0,1.341-.567,1.375,1.375,0,0,1,1.424.039c2.561,1.3,5.142,2.552,7.717,3.822C-462.837-22.2-462.765-22.159-462.636-22.093Z" transform="translate(478.284 27.604)" fill="#0008c1"/>
      <path id="Path_3401" data-name="Path 3401" d="M-332.7,49.48c-.006-.135-.011-.2-.012-.259-.02-1.316-.035-2.632-.064-3.947a.3.3,0,0,1,.226-.339c.562-.219,1.117-.454,1.722-.7.03,1.6.059,3.167.089,4.772-.256-.114-.481-.2-.7-.313a.466.466,0,0,0-.615.117C-332.249,49.02-332.455,49.225-332.7,49.48Z" transform="translate(346.882 -38.282)" fill="#0008c1"/>
    </g>
  </g>
</svg>
