<svg xmlns="http://www.w3.org/2000/svg" width="40" height="40" viewBox="0 0 40 40">
  <g id="Home" transform="translate(-85 -6034)">
    <rect id="Rectangle_2241" data-name="Rectangle 2241" width="40" height="40" transform="translate(85 6034)" fill="none"/>
    <g id="Group_1226" data-name="Group 1226" transform="translate(95.001 6044)">
      <path id="Path_3402" data-name="Path 3402" d="M222.121-797h6.405c.01.008.019.02.03.023a1.619,1.619,0,0,1,1.337,1.752q0,2.83,0,5.661a1.609,1.609,0,0,1-1.706,1.715q-2.869,0-5.739,0a2.073,2.073,0,0,1-.427-.033,1.6,1.6,0,0,1-1.282-1.657q-.005-2.235,0-4.47c0-.495-.015-.99.011-1.483a1.535,1.535,0,0,1,.966-1.376A3.486,3.486,0,0,1,222.121-797Z" transform="translate(-209.896 797)" fill="#0008c1"/>
      <path id="Path_3403" data-name="Path 3403" d="M13-581.374v-6.406a.269.269,0,0,0,.026-.052,1.6,1.6,0,0,1,1.717-1.328q2.84,0,5.68,0a2.161,2.161,0,0,1,.465.037,1.6,1.6,0,0,1,1.265,1.65c0,1.288,0,2.576,0,3.865,0,.7.014,1.393-.011,2.088a1.566,1.566,0,0,1-1.55,1.506q-3.016.017-6.031,0a1.592,1.592,0,0,1-1.481-1.106C13.053-581.2,13.027-581.289,13-581.374Z" transform="translate(-13 600.004)" fill="#0008c1"/>
      <path id="Path_3404" data-name="Path 3404" d="M13-789.227v-6.405c.014-.042.031-.082.043-.125a1.6,1.6,0,0,1,.943-1.113c.122-.054.254-.087.382-.129h6.405a.128.128,0,0,0,.033.02,1.609,1.609,0,0,1,1.349,1.741q0,2.84,0,5.681a1.6,1.6,0,0,1-1.709,1.71q-2.245,0-4.49,0c-.462,0-.924.009-1.386,0a1.594,1.594,0,0,1-1.528-1.247C13.03-789.142,13.014-789.185,13-789.227Z" transform="translate(-13 797)" fill="#0008c1"/>
      <path id="Path_3405" data-name="Path 3405" d="M220.782-584.593c0-.969,0-1.939,0-2.909a1.593,1.593,0,0,1,1.27-1.627,2.006,2.006,0,0,1,.426-.035q2.88,0,5.76,0a1.605,1.605,0,0,1,1.7,1.705q0,2.87,0,5.74a1.612,1.612,0,0,1-1.7,1.706q-2.88,0-5.76,0a1.607,1.607,0,0,1-1.694-1.69C220.778-582.666,220.782-583.629,220.782-584.593Z" transform="translate(-209.939 600.01)" fill="#0008c1"/>
    </g>
  </g>
</svg>
