<svg xmlns="http://www.w3.org/2000/svg" width="40" height="40" viewBox="0 0 40 40">
  <g id="Order" transform="translate(-159 -6034)">
    <rect id="Rectangle_2243" data-name="Rectangle 2243" width="40" height="40" transform="translate(159 6034)" fill="none"/>
    <g id="Group_1224" data-name="Group 1224" transform="translate(171.053 6044)">
      <path id="Path_3394" data-name="Path 3394" d="M-616.466-507.617h-10.1a.585.585,0,0,0-.106-.038,3.244,3.244,0,0,1-2.784-3.3c.01-.48.069-.96.106-1.44q.183-2.344.368-4.688c.137-1.725.282-3.448.414-5.174a1.431,1.431,0,0,1,1.517-1.421l1.663,0c0,.866,0,1.732,0,2.6a.586.586,0,0,0,.586.605.584.584,0,0,0,.585-.605c0-.866,0-1.732,0-2.6h5.41c0,.853,0,1.706,0,2.559a.593.593,0,0,0,.586.644.593.593,0,0,0,.587-.644c0-.853,0-1.706,0-2.559.567,0,1.134,0,1.7,0a1.426,1.426,0,0,1,1.477,1.4c.074,1.038.162,2.075.245,3.112q.168,2.1.337,4.2c.1,1.251.184,2.5.3,3.754a3.273,3.273,0,0,1-2.066,3.359C-615.911-507.75-616.192-507.693-616.466-507.617Zm-5.86-7.453-.963-.964a.6.6,0,0,0-.562-.2.565.565,0,0,0-.455.408.569.569,0,0,0,.167.6c.427.43.856.857,1.285,1.284a.626.626,0,0,0,1.053,0q1.411-1.407,2.821-2.815a1.273,1.273,0,0,0,.18-.2.545.545,0,0,0-.006-.641.519.519,0,0,0-.574-.244.953.953,0,0,0-.408.244C-620.631-516.767-621.467-515.927-622.326-515.07Z" transform="translate(629.46 527.617)" fill="#0008c1"/>
      <path id="Path_3395" data-name="Path 3395" d="M-538.668-600.188h-1.18a2.7,2.7,0,0,0-2.7-2.776,2.7,2.7,0,0,0-2.7,2.776h-1.18a3.9,3.9,0,0,1,1.3-2.962,3.881,3.881,0,0,1,5.368.2A3.917,3.917,0,0,1-538.668-600.188Z" transform="translate(550.49 604.131)" fill="#0008c1"/>
    </g>
  </g>
</svg>
